<mxfile host="app.diagrams.net" modified="2024-04-11T13:14:44.033Z" agent="Mozilla/5.0 (Windows NT 10.0; Win64; x64; rv:124.0) Gecko/20100101 Firefox/124.0" etag="8iCWteuWTN4L6Yg6Eg5A" version="24.1.0" type="github">
  <diagram name="第 1 页" id="qpAmytoK396UEX8EHQCx">
    <mxGraphModel dx="2074" dy="1106" grid="1" gridSize="10" guides="1" tooltips="1" connect="1" arrows="1" fold="1" page="1" pageScale="1" pageWidth="827" pageHeight="1169" math="0" shadow="0">
      <root>
        <mxCell id="0" />
        <mxCell id="1" parent="0" />
        <mxCell id="X4fmyrtYKkiumownTyuO-15" style="rounded=0;orthogonalLoop=1;jettySize=auto;html=1;startArrow=block;" edge="1" parent="1" source="X4fmyrtYKkiumownTyuO-2" target="X4fmyrtYKkiumownTyuO-6">
          <mxGeometry relative="1" as="geometry" />
        </mxCell>
        <mxCell id="X4fmyrtYKkiumownTyuO-2" value="任意终端" style="sketch=0;outlineConnect=0;fontColor=#232F3E;gradientColor=none;fillColor=#232F3D;strokeColor=none;dashed=0;verticalLabelPosition=bottom;verticalAlign=top;align=center;html=1;fontSize=12;fontStyle=0;aspect=fixed;pointerEvents=1;shape=mxgraph.aws4.client;" vertex="1" parent="1">
          <mxGeometry x="40" y="160" width="78" height="76" as="geometry" />
        </mxCell>
        <mxCell id="X4fmyrtYKkiumownTyuO-14" style="rounded=0;orthogonalLoop=1;jettySize=auto;html=1;startArrow=block;" edge="1" parent="1" source="X4fmyrtYKkiumownTyuO-3" target="X4fmyrtYKkiumownTyuO-2">
          <mxGeometry relative="1" as="geometry" />
        </mxCell>
        <mxCell id="X4fmyrtYKkiumownTyuO-3" value="用户" style="sketch=0;outlineConnect=0;fontColor=#232F3E;gradientColor=none;fillColor=#232F3D;strokeColor=none;dashed=0;verticalLabelPosition=bottom;verticalAlign=top;align=center;html=1;fontSize=12;fontStyle=0;aspect=fixed;pointerEvents=1;shape=mxgraph.aws4.user;" vertex="1" parent="1">
          <mxGeometry x="40" y="40" width="78" height="78" as="geometry" />
        </mxCell>
        <mxCell id="X4fmyrtYKkiumownTyuO-18" style="rounded=0;orthogonalLoop=1;jettySize=auto;html=1;" edge="1" parent="1" source="X4fmyrtYKkiumownTyuO-4" target="X4fmyrtYKkiumownTyuO-5">
          <mxGeometry relative="1" as="geometry" />
        </mxCell>
        <mxCell id="X4fmyrtYKkiumownTyuO-19" style="rounded=0;orthogonalLoop=1;jettySize=auto;html=1;" edge="1" parent="1" source="X4fmyrtYKkiumownTyuO-4" target="X4fmyrtYKkiumownTyuO-7">
          <mxGeometry relative="1" as="geometry" />
        </mxCell>
        <mxCell id="X4fmyrtYKkiumownTyuO-4" value="前端服务器" style="sketch=0;outlineConnect=0;fontColor=#232F3E;gradientColor=none;fillColor=#232F3D;strokeColor=none;dashed=0;verticalLabelPosition=bottom;verticalAlign=top;align=center;html=1;fontSize=12;fontStyle=0;aspect=fixed;pointerEvents=1;shape=mxgraph.aws4.servers;" vertex="1" parent="1">
          <mxGeometry x="360" y="158" width="78" height="78" as="geometry" />
        </mxCell>
        <mxCell id="X4fmyrtYKkiumownTyuO-21" style="rounded=0;orthogonalLoop=1;jettySize=auto;html=1;startArrow=classic;startFill=1;endArrow=classic;endFill=1;" edge="1" parent="1" source="X4fmyrtYKkiumownTyuO-5" target="X4fmyrtYKkiumownTyuO-8">
          <mxGeometry relative="1" as="geometry" />
        </mxCell>
        <mxCell id="X4fmyrtYKkiumownTyuO-22" style="rounded=0;orthogonalLoop=1;jettySize=auto;html=1;startArrow=classic;startFill=1;endArrow=classic;endFill=1;" edge="1" parent="1" source="X4fmyrtYKkiumownTyuO-5" target="X4fmyrtYKkiumownTyuO-10">
          <mxGeometry relative="1" as="geometry" />
        </mxCell>
        <mxCell id="X4fmyrtYKkiumownTyuO-23" style="rounded=0;orthogonalLoop=1;jettySize=auto;html=1;startArrow=classic;startFill=1;endArrow=classic;endFill=1;" edge="1" parent="1" source="X4fmyrtYKkiumownTyuO-5" target="X4fmyrtYKkiumownTyuO-9">
          <mxGeometry relative="1" as="geometry" />
        </mxCell>
        <mxCell id="X4fmyrtYKkiumownTyuO-5" value="逻辑服务器" style="sketch=0;outlineConnect=0;fontColor=#232F3E;gradientColor=none;fillColor=#232F3D;strokeColor=none;dashed=0;verticalLabelPosition=bottom;verticalAlign=top;align=center;html=1;fontSize=12;fontStyle=0;aspect=fixed;pointerEvents=1;shape=mxgraph.aws4.servers;" vertex="1" parent="1">
          <mxGeometry x="520" y="160" width="78" height="78" as="geometry" />
        </mxCell>
        <mxCell id="X4fmyrtYKkiumownTyuO-16" style="rounded=0;orthogonalLoop=1;jettySize=auto;html=1;startArrow=block;" edge="1" parent="1" source="X4fmyrtYKkiumownTyuO-6" target="X4fmyrtYKkiumownTyuO-4">
          <mxGeometry relative="1" as="geometry" />
        </mxCell>
        <mxCell id="X4fmyrtYKkiumownTyuO-6" value="Internet" style="sketch=0;outlineConnect=0;fontColor=#232F3E;gradientColor=none;fillColor=#232F3D;strokeColor=none;dashed=0;verticalLabelPosition=bottom;verticalAlign=top;align=center;html=1;fontSize=12;fontStyle=0;aspect=fixed;pointerEvents=1;shape=mxgraph.aws4.globe;" vertex="1" parent="1">
          <mxGeometry x="200" y="158" width="78" height="78" as="geometry" />
        </mxCell>
        <mxCell id="X4fmyrtYKkiumownTyuO-20" style="rounded=0;orthogonalLoop=1;jettySize=auto;html=1;" edge="1" parent="1" source="X4fmyrtYKkiumownTyuO-7" target="X4fmyrtYKkiumownTyuO-5">
          <mxGeometry relative="1" as="geometry" />
        </mxCell>
        <mxCell id="X4fmyrtYKkiumownTyuO-7" value="防火墙" style="sketch=0;outlineConnect=0;fontColor=#232F3E;gradientColor=none;fillColor=#232F3D;strokeColor=none;dashed=0;verticalLabelPosition=bottom;verticalAlign=top;align=center;html=1;fontSize=12;fontStyle=0;aspect=fixed;pointerEvents=1;shape=mxgraph.aws4.generic_firewall;" vertex="1" parent="1">
          <mxGeometry x="520" y="40" width="78" height="66" as="geometry" />
        </mxCell>
        <mxCell id="X4fmyrtYKkiumownTyuO-8" value="用户数据库" style="sketch=0;outlineConnect=0;fontColor=#232F3E;gradientColor=none;fillColor=#232F3D;strokeColor=none;dashed=0;verticalLabelPosition=bottom;verticalAlign=top;align=center;html=1;fontSize=12;fontStyle=0;aspect=fixed;pointerEvents=1;shape=mxgraph.aws4.generic_database;" vertex="1" parent="1">
          <mxGeometry x="680" y="159" width="59" height="78" as="geometry" />
        </mxCell>
        <mxCell id="X4fmyrtYKkiumownTyuO-9" value="Log" style="sketch=0;outlineConnect=0;fontColor=#232F3E;gradientColor=none;fillColor=#232F3D;strokeColor=none;dashed=0;verticalLabelPosition=bottom;verticalAlign=top;align=center;html=1;fontSize=12;fontStyle=0;aspect=fixed;pointerEvents=1;shape=mxgraph.aws4.logs;" vertex="1" parent="1">
          <mxGeometry x="682" y="280" width="57" height="78" as="geometry" />
        </mxCell>
        <mxCell id="X4fmyrtYKkiumownTyuO-10" value="项目数据库" style="sketch=0;outlineConnect=0;fontColor=#232F3E;gradientColor=none;fillColor=#232F3D;strokeColor=none;dashed=0;verticalLabelPosition=bottom;verticalAlign=top;align=center;html=1;fontSize=12;fontStyle=0;aspect=fixed;pointerEvents=1;shape=mxgraph.aws4.json_script;" vertex="1" parent="1">
          <mxGeometry x="682" y="40" width="57" height="78" as="geometry" />
        </mxCell>
      </root>
    </mxGraphModel>
  </diagram>
</mxfile>
